<svg width="80" height="80" viewBox="0 0 80 80" fill="none" xmlns="http://www.w3.org/2000/svg">
<path d="M63.3333 6.66667H60V3.33333C60 1.49333 58.5067 0 56.6667 0C54.8267 0 53.3333 1.49333 53.3333 3.33333V6.66667H26.6667V3.33333C26.6667 1.49333 25.1733 0 23.3333 0C21.4933 0 20 1.49333 20 3.33333V6.66667H16.6667C7.47667 6.66667 0 14.1433 0 23.3333V63.3333C0 72.5233 7.47667 80 16.6667 80H63.3333C72.5233 80 80 72.5233 80 63.3333V23.3333C80 14.1433 72.5233 6.66667 63.3333 6.66667ZM16.6667 13.3333H63.3333C68.8467 13.3333 73.3333 17.82 73.3333 23.3333V26.6667H6.66667V23.3333C6.66667 17.82 11.1533 13.3333 16.6667 13.3333ZM63.3333 73.3333H16.6667C11.1533 73.3333 6.66667 68.8467 6.66667 63.3333V33.3333H73.3333V63.3333C73.3333 68.8467 68.8467 73.3333 63.3333 73.3333ZM54.6567 51.1733C54.6567 52.4367 53.7767 53.5 52.77 54.06L47.5567 56.96L49.87 63.27C50.3167 64.4933 49.9133 65.8633 48.8733 66.6467C47.81 67.4467 46.3433 67.4367 45.29 66.6233L40.1033 62.6133L34.9167 66.6233C33.8633 67.4367 32.3967 67.4467 31.3333 66.6467C30.2933 65.8633 29.89 64.4933 30.3367 63.27L32.65 56.96L27.4367 54.06C26.43 53.5 25.55 52.4367 25.55 51.1733C25.55 50.1033 26.48 48.92 27.9867 48.92H35.4767L37.4633 41.31C37.7767 40.1033 38.86 39.2633 40.1033 39.24C41.3467 39.2633 42.43 40.1033 42.7433 41.31L44.73 48.92H52.22C53.7267 48.92 54.6567 50.1 54.6567 51.1733Z" fill="black"/>
</svg>
