<svg width="30" height="30" viewBox="0 0 30 30" fill="none" xmlns="http://www.w3.org/2000/svg">
<path d="M3.57143 -0.00683594C1.60749 -0.00683594 0 1.58913 0 3.539V26.2324C0 28.1822 1.60749 29.7782 3.57143 29.7782H15.5943C15.6714 29.7909 15.7502 29.7909 15.8273 29.7782H19.88C19.9572 29.7909 20.0359 29.7909 20.113 29.7782H26.4286C28.3925 29.7782 30 28.1822 30 26.2324V3.539C30 1.58913 28.3925 -0.00683594 26.4286 -0.00683594H3.57143ZM3.57143 1.4115H26.4286C27.6203 1.4115 28.5714 2.35577 28.5714 3.539V26.2324C28.5714 27.4156 27.6203 28.3599 26.4286 28.3599H20.7143V18.4315H23.4431L24.4434 13.4673H20.7143V12.049C20.7143 11.6537 20.7522 11.6227 20.8859 11.5365C21.0196 11.4503 21.4327 11.3398 22.1429 11.3398H24.2857V7.34662L23.8783 7.15409C23.8783 7.15409 22.2376 6.37567 20 6.37567C18.3929 6.37567 17.0726 7.01141 16.2277 8.05994C15.3828 9.10848 15 10.5125 15 12.049V13.4673H12.8571V18.4315H15V28.3599H3.57143C2.37965 28.3599 1.42857 27.4156 1.42857 26.2324V3.539C1.42857 2.35577 2.37965 1.4115 3.57143 1.4115ZM20 7.794C21.485 7.794 22.4195 8.11913 22.8571 8.29125V9.92151H22.1429C21.3208 9.92151 20.6621 9.98902 20.1074 10.3467C19.5527 10.7044 19.2857 11.3834 19.2857 12.049V14.8857H22.6995L22.2712 17.0132H19.2857V28.3599H16.4286V17.0132H14.2857V14.8857H16.4286V12.049C16.4286 10.7489 16.7601 9.67078 17.3438 8.9464C17.9274 8.22202 18.75 7.794 20 7.794Z" fill="white"/>
</svg>
