<svg width="80" height="80" viewBox="0 0 80 80" fill="none" xmlns="http://www.w3.org/2000/svg">
<path d="M4.66303 59.9503H6.60572V24.689L1.52883 18.6218C0.403466 17.4171 1.24064 15.4054 2.92538 15.4054H9.95535V8.80255H8.13833C5.62398 8.80255 5.62398 4.98047 8.13833 4.98047H15.5945C18.1079 4.98047 18.1079 8.80255 15.5945 8.80255H13.7774V15.4054L20.8074 15.4092C22.3967 15.4083 23.318 17.2886 22.2701 18.5406L17.1261 24.6927V59.9503H65.0689C66.1243 59.9503 66.9804 60.8064 66.9804 61.8619V73.1089C66.9804 74.1643 66.1243 75.0194 65.0689 75.0194H4.66303C3.60759 75.0194 2.75152 74.1643 2.75152 73.1089V61.8619C2.75152 60.8064 3.60759 59.9503 4.66303 59.9503ZM62.5451 37.9618L56.2965 50.8114C56.1085 51.2007 55.8052 51.4974 55.448 51.6797L49.001 55.019C47.4467 55.8193 45.7478 54.2763 46.3383 52.6671L49.4659 42.4548L38.0327 46.3827C35.5014 47.252 32.8179 46.7531 30.7675 45.0324L22.4808 38.0799C21.4669 37.2314 21.6002 35.6081 22.7775 34.9533L27.6418 32.2396C28.2475 31.8578 29.045 31.8361 29.6875 32.2481L35.5893 36.0494L44.5553 31.7246L33.2195 25.0083C31.9401 24.2543 31.9751 22.3485 33.3366 21.6682L39.6778 18.4971C40.2022 18.1919 40.8627 18.1409 41.4532 18.4196L58.1863 26.3454L69.6572 21.3582C78.0365 17.7147 83.1332 30.8893 74.5442 33.8402L62.5451 37.9618ZM53.1415 48.5805L57.4549 39.7108L53.9154 40.9269L51.2754 49.5471L53.1415 48.5805ZM28.5848 36.0758L27.0475 36.9328L33.2157 42.1061C34.2598 42.982 35.5042 43.2116 36.793 42.7694L73.3055 30.227C76.9348 28.9797 74.7379 23.3057 71.1804 24.8515L58.912 30.1854C58.3885 30.4141 57.8168 30.3885 57.3378 30.1618L40.6567 22.2625L38.166 23.5079L49.5585 30.2525C50.9087 31.05 50.7585 33.0267 49.3563 33.6418L36.2837 39.9489C35.6648 40.2475 34.9637 40.1814 34.4251 39.8355L28.5848 36.0758ZM8.8555 21.4395H14.8763L16.7245 19.2275H7.0073L8.8555 21.4395ZM10.4278 59.9503H13.304V25.2616H10.4278V59.9503ZM63.1583 63.7724C44.2964 63.7724 25.4355 63.7724 6.57359 63.7724V71.1974H63.1583V63.7724Z" fill="black"/>
</svg>
