<svg width="74" height="56" viewBox="0 0 74 56" fill="none" xmlns="http://www.w3.org/2000/svg">
<path d="M73.7228 7.06674C73.7896 4.57941 72.3013 3.06901 71.327 2.28768L71.2964 2.26332C71.1934 2.18024 71.094 2.10572 71.0061 2.03989C70.9164 1.97331 70.8189 1.89953 70.7062 1.82141L70.6756 1.79854C69.6324 1.06797 67.617 -0.0477525 64.3 0.00158183C57.9841 0.0954521 49.542 4.40471 39.2028 12.7983L17.0342 12.2154C17.0342 12.2154 10.9228 11.9476 7.30257 13.1299C3.68027 14.3124 0.254571 15.6524 0.0443706 16.2038C-0.0712294 16.5068 0.0338705 16.829 0.420771 17.1184C0.678571 17.3117 1.06067 17.4915 1.58707 17.6412C1.58707 17.6412 23.3712 23.4215 26.6265 24.2844C16.1306 35.4297 18.4901 39.3436 19.2352 40.1336C19.2905 40.193 19.3537 40.2488 19.4224 40.3005L19.9745 40.7144C20.0433 40.766 20.1178 40.8133 20.198 40.8555C21.2487 41.412 26.4431 43.1745 41.2145 35.3775C42.2461 37.617 49.884 53.8536 49.884 53.8536C50.0865 54.2483 50.3253 54.5353 50.5832 54.7287C50.969 55.0188 51.3989 55.0976 51.802 55.0102C52.5375 54.8526 54.3256 52.2837 55.9017 49.5686C57.4779 46.8536 57.1225 42.273 57.1225 42.273L56.3641 26.0836C67.7488 18.2399 73.5966 11.8437 73.7228 7.06674ZM6.50207 16.2195C7.14587 15.9911 7.86797 15.7447 8.66847 15.4833C10.7452 14.8058 14.7799 14.6912 16.8374 14.7778C16.8603 14.7785 16.889 14.78 16.9139 14.7807L36.2168 15.2884C33.225 17.8416 30.707 20.1548 28.6151 22.2376C28.3151 22.0556 27.9884 21.8995 27.6159 21.8007L6.50207 16.2195ZM52.763 48.5445C52.4152 49.1447 52.0867 49.6861 51.7811 50.168L44.338 34.3375C44.2559 34.1642 44.1375 34.0074 44.0056 33.8562C46.7203 32.325 49.7274 30.4924 53.0439 28.3166L53.7011 42.3623C53.7011 42.3824 53.703 42.4016 53.7048 42.4225C53.8194 43.9616 53.6666 46.9875 52.763 48.5445ZM52.5853 25.1962C30.6785 39.9102 23.1725 38.9612 22.179 38.7385L22.0587 38.6476C21.7607 37.9035 20.496 32.2756 40.1217 15.8507C53.1126 4.97693 60.4773 2.62568 64.3688 2.56772C66.4325 2.53765 67.6189 3.16858 68.3372 3.67354L68.4289 3.74155C68.5264 3.81323 68.641 3.8984 68.7346 3.97075L68.8264 4.04093C69.4988 4.57948 70.3412 5.46833 70.3011 7.01524C70.2228 9.93294 67.0878 15.4554 52.5853 25.1962Z" fill="white"/>
<path d="M19.47 28.212C18.1519 27.223 11.7118 29.542 8.83657 30.5397C8.03997 30.8162 7.26627 31.3475 6.91667 31.8804C6.01687 33.2476 4.61647 35.8322 6.03787 36.8979C6.28047 37.0813 6.60717 37.2188 7.03317 37.2991L15.7295 38.8117C15.7295 38.8117 16.0504 34.7694 19.2924 29.7605C19.8102 28.9598 19.8159 28.472 19.47 28.212ZM12.9326 35.6897L8.96837 35.0001C9.10787 34.5675 9.39827 33.9165 9.96367 33.0521C10.0268 32.9948 10.1719 32.9039 10.2751 32.8689L10.7432 32.7062C12.2429 32.1841 13.5363 31.7552 14.6213 31.4214C13.8057 33.052 13.2765 34.5138 12.9326 35.6897Z" fill="#FBFBFB"/>
<path d="M33.7218 40.579C27.041 43.009 21.6499 43.2497 21.6499 43.2497L23.6673 49.7705C23.7742 50.0892 23.9576 50.3335 24.2003 50.5161C25.6235 51.5825 29.0718 50.5318 30.8925 49.8572C31.605 49.5958 32.3138 49.0156 32.6825 48.4177C34.0122 46.2619 37.1071 41.4349 35.787 40.4459C35.4412 40.1858 34.7897 40.1909 33.7218 40.579ZM29.794 46.9882L29.5762 47.3405C29.5284 47.4165 29.4079 47.5253 29.3317 47.5733C28.1778 47.9966 27.3103 48.2142 26.7335 48.3188L25.8126 45.348C27.3831 45.0896 29.3317 44.692 31.5057 44.0812C31.0605 44.8948 30.4894 45.8645 29.794 46.9882Z" fill="white"/>
</svg>
