<svg width="80" height="80" viewBox="0 0 80 80" fill="none" xmlns="http://www.w3.org/2000/svg">
<path d="M7.17506 63.8375C2.76256 65.4125 6.05329e-05 67.3 6.05329e-05 70V76.25C6.05329e-05 77.2446 0.395149 78.1984 1.09841 78.9016C1.80167 79.6049 2.7555 80 3.75006 80H76.2501C77.2446 80 78.1985 79.6049 78.9017 78.9016C79.605 78.1984 80.0001 77.2446 80.0001 76.25V70C80.0001 67.3 77.2626 65.4125 72.8501 63.8375C80.6626 58.75 80.0001 47.5 80.0001 47.4125C79.9809 47.1527 79.881 46.9053 79.7143 46.7051C79.5477 46.5048 79.3226 46.3616 79.0706 46.2955C78.8186 46.2294 78.5522 46.2437 78.3087 46.3364C78.0653 46.4291 77.8568 46.5956 77.7126 46.8125C77.7126 46.8125 75.4751 50 72.5001 50C67.3376 50 66.2501 41.1625 66.2501 33.75C66.2501 10.725 57.9001 0 40.0001 0C22.1001 0 13.7501 10.725 13.7501 33.75C13.7501 41.1625 12.6626 50 7.50006 50C4.48756 50 2.31256 46.8375 2.30006 46.8125C2.15767 46.5904 1.94867 46.4191 1.70299 46.3231C1.45731 46.227 1.18754 46.2111 0.932296 46.2777C0.677049 46.3443 0.449409 46.49 0.28196 46.6938C0.114511 46.8976 0.0158365 47.1492 6.05329e-05 47.4125C6.05329e-05 47.5 -0.66244 58.75 7.17506 63.8375ZM2.80006 52.05C5.30006 56.075 8.90006 58.125 16.2626 58.125C17.6402 58.1887 19.0154 57.9548 20.2945 57.4393C21.5736 56.9237 22.7266 56.1387 23.6751 55.1375C25.5232 52.8945 26.6168 50.1256 26.8001 47.225C27.1376 47.6125 27.4876 48 27.8751 48.3875C28.2626 48.775 28.4626 48.9875 28.7501 49.3V58.3625C26.1258 59.236 23.4388 59.9088 20.7126 60.375C17.4876 61.05 13.8501 61.825 10.5501 62.75C5.26256 60.7 3.42506 55.75 2.80006 52.05ZM50.3626 46.6125C49.9376 47.0375 49.5209 47.4875 49.1126 47.9625C47.1876 50 44.8251 52.5 40.0001 52.5C35.1751 52.5 32.8126 50 30.9126 47.9625C30.4876 47.4875 30.0709 47.0375 29.6626 46.6125C31.7347 47.7096 33.953 48.5051 36.2501 48.975C36.3064 49.5983 36.5944 50.1778 37.0573 50.599C37.5202 51.0203 38.1242 51.2525 38.7501 51.25H41.2501C41.9131 51.25 42.549 50.9866 43.0178 50.5178C43.4867 50.0489 43.7501 49.413 43.7501 48.75C43.7501 48.087 43.4867 47.4511 43.0178 46.9822C42.549 46.5134 41.9131 46.25 41.2501 46.25H38.7501C38.2643 46.2507 37.7892 46.393 37.383 46.6594C36.9767 46.9258 36.6569 47.3048 36.4626 47.75C33.2014 47.0108 30.1122 45.6529 27.3626 43.75C25.6126 40.9 25.0001 37.35 25.0001 31.25V31.1125C33.0751 30.3875 43.7501 26.225 49.2626 19.4625C51.0488 20.8648 52.4933 22.6544 53.4872 24.6963C54.4811 26.7382 54.9984 28.9791 55.0001 31.25C55.0001 39.475 53.9126 43.0625 50.3626 46.6125ZM31.2501 58.8125V51.8C33.6656 53.9205 36.7864 55.0618 40.0001 55C43.2137 55.0618 46.3345 53.9205 48.7501 51.8V61.25C48.7501 63.5706 47.8282 65.7962 46.1872 67.4372C44.5463 69.0781 42.3207 70 40.0001 70C37.6794 70 35.4538 69.0781 33.8129 67.4372C32.1719 65.7962 31.2501 63.5706 31.2501 61.25V58.8125ZM77.5001 70.0625V76.3125C77.5001 76.644 77.3684 76.962 77.1339 77.1964C76.8995 77.4308 76.5816 77.5625 76.2501 77.5625H3.75006C3.41854 77.5625 3.1006 77.4308 2.86618 77.1964C2.63176 76.962 2.50006 76.644 2.50006 76.3125V70C2.50006 66.7625 14.6376 64.2125 21.1626 62.85C24.5751 62.1375 26.9126 61.6 28.4751 61.125H28.6751V61.25C28.6751 64.2337 29.8603 67.0952 31.9701 69.205C34.0799 71.3147 36.9414 72.5 39.9251 72.5C42.9088 72.5 45.7702 71.3147 47.88 69.205C49.9898 67.0952 51.1751 64.2337 51.1751 61.25V61.05H51.3751C52.9376 61.55 55.2751 62.0625 58.6876 62.775C65.3376 64.2125 77.5001 66.7625 77.5001 70V70.0625ZM69.4876 62.825C66.1876 61.9 62.5501 61.125 59.3251 60.45C56.5844 59.9652 53.8849 59.2715 51.2501 58.375V49.3C51.5376 48.9875 51.8376 48.675 52.1251 48.3875C52.4126 48.1 52.8626 47.6125 53.1876 47.2375C53.3902 50.1322 54.4865 52.8926 56.3251 55.1375C57.2749 56.1403 58.43 56.9263 59.7114 57.4419C60.9928 57.9575 62.3704 58.1905 63.7501 58.125C71.0751 58.125 74.6626 56.1 77.1626 52.125C76.5001 55.8125 74.6501 60.7375 69.4626 62.7625L69.4876 62.825ZM16.2501 33.75C16.2501 19.2 18.9626 2.5 40.0001 2.5C51.0501 2.5 63.7501 6.05 63.7501 33.75C63.7501 46.25 66.6876 52.5 72.5001 52.5C73.7422 52.4823 74.9611 52.1604 76.0501 51.5625C73.7501 55.15 70.4501 56.875 63.7501 56.875C62.5471 56.9376 61.3449 56.7399 60.2253 56.2955C59.1057 55.8512 58.0951 55.1705 57.2626 54.3C54.9626 51.8 54.4501 48.05 54.3626 45.7375C56.6751 42.3375 57.5001 38.2625 57.5001 31.25C57.5002 28.3725 56.7908 25.5393 55.4346 23.0014C54.0785 20.4634 52.1174 18.2991 49.7251 16.7C49.455 16.5193 49.1252 16.4508 48.8055 16.5092C48.4858 16.5675 48.2014 16.748 48.0126 17.0125C43.0126 24.05 31.7626 28.2625 23.7751 28.7C23.4621 28.6987 23.1601 28.8149 22.9287 29.0255C22.6973 29.2361 22.5532 29.5258 22.5251 29.8375C22.5251 30.3 22.5251 30.775 22.5251 31.25C22.5251 38.2625 23.3376 42.3375 25.6626 45.7375C25.5751 48.0125 25.0626 51.7875 22.7626 54.3C21.9272 55.1738 20.9126 55.8564 19.7884 56.3009C18.6642 56.7454 17.4571 56.9412 16.2501 56.875C9.53756 56.875 6.25006 55.15 3.95006 51.5625C5.03899 52.1604 6.25789 52.4823 7.50006 52.5C13.3251 52.5 16.2501 46.25 16.2501 33.75Z" fill="#190933"/>
</svg>
