<svg width="30" height="30" viewBox="0 0 30 30" fill="none" xmlns="http://www.w3.org/2000/svg">
<path d="M8.86364 0C3.97669 0 0 3.94946 0 8.80293V20.9916C0 25.8451 3.97669 29.7945 8.86364 29.7945H21.1364C26.0233 29.7945 30 25.8451 30 20.9916V8.80293C30 3.94946 26.0233 0 21.1364 0H8.86364ZM8.86364 1.3543H21.1364C25.2862 1.3543 28.6364 4.68148 28.6364 8.80293V20.9916C28.6364 25.113 25.2862 28.4402 21.1364 28.4402H8.86364C4.71376 28.4402 1.36364 25.113 1.36364 20.9916V8.80293C1.36364 4.68148 4.71376 1.3543 8.86364 1.3543ZM23.1818 5.41719C22.8202 5.41719 22.4733 5.55987 22.2176 5.81385C21.9618 6.06783 21.8182 6.4123 21.8182 6.77148C21.8182 7.13066 21.9618 7.47513 22.2176 7.72911C22.4733 7.98309 22.8202 8.12578 23.1818 8.12578C23.5435 8.12578 23.8903 7.98309 24.1461 7.72911C24.4018 7.47513 24.5455 7.13066 24.5455 6.77148C24.5455 6.4123 24.4018 6.06783 24.1461 5.81385C23.8903 5.55987 23.5435 5.41719 23.1818 5.41719ZM15 7.44863C10.8659 7.44863 7.5 10.7915 7.5 14.8973C7.5 19.003 10.8659 22.3459 15 22.3459C19.1341 22.3459 22.5 19.003 22.5 14.8973C22.5 10.7915 19.1341 7.44863 15 7.44863ZM15 8.80293C18.3971 8.80293 21.1364 11.5234 21.1364 14.8973C21.1364 18.2711 18.3971 20.9916 15 20.9916C11.6029 20.9916 8.86364 18.2711 8.86364 14.8973C8.86364 11.5234 11.6029 8.80293 15 8.80293Z" fill="white"/>
</svg>
