<svg width="50" height="45" viewBox="0 0 50 45" fill="none" xmlns="http://www.w3.org/2000/svg">
<path d="M48.6264 37.7987L37.1555 27.4742C35.4463 29.8665 33.1844 31.9012 30.5262 33.4395L41.9981 43.764C43.8295 45.4119 46.7989 45.4119 48.6263 43.764C50.4578 42.1188 50.4578 39.4465 48.6264 37.7987Z" fill="white"/>
<path d="M37.5005 16.875C37.5005 7.55601 29.1051 0 18.7503 0C8.39573 0 0 7.55601 0 16.875C0 26.1939 8.39573 33.7496 18.7503 33.7496C29.1051 33.7496 37.5005 26.1939 37.5005 16.875ZM18.7503 29.5307C10.9957 29.5307 4.68771 23.8541 4.68771 16.8751C4.68771 9.896 10.9957 4.21895 18.7503 4.21895C26.5048 4.21895 32.8133 9.896 32.8133 16.8751C32.8133 23.8541 26.5048 29.5307 18.7503 29.5307Z" fill="white"/>
<path d="M7.81256 16.875H10.9372C10.9372 12.9981 14.4423 9.84379 18.75 9.84379V7.03137C12.7199 7.03137 7.81256 11.4479 7.81256 16.875Z" fill="white"/>
</svg>
