<svg width="31" height="30" viewBox="0 0 31 30" fill="none" xmlns="http://www.w3.org/2000/svg">
<path d="M20.9027 0C17.3162 0 14.3997 3.55579 14.3997 7.92841C14.3997 8.19116 14.4536 8.44821 14.4747 8.70526C10.0402 8.18831 6.11874 5.58359 3.45524 1.59939C3.33108 1.40803 3.13899 1.30522 2.93753 1.32235C2.73841 1.33949 2.56038 1.47944 2.46199 1.69078C1.90211 2.86462 1.58118 4.21554 1.58118 5.66641C1.58118 7.42289 2.09655 9.03085 2.89302 10.3503C2.73841 10.2675 2.56975 10.2218 2.42451 10.1219C2.23944 10.0019 2.0169 10.0076 1.83652 10.139C1.65614 10.2704 1.54604 10.5074 1.5437 10.7616V10.853C1.5437 13.5463 2.68687 15.8854 4.37353 17.3191C4.35478 17.3163 4.33604 17.3248 4.3173 17.3191C4.11116 17.2763 3.90267 17.3648 3.76446 17.5562C3.62625 17.7475 3.58174 18.0131 3.64264 18.2559C4.31262 20.7949 6.02269 22.7342 8.14038 23.4425C6.45373 24.6649 4.49768 25.3846 2.38703 25.3846C1.93022 25.3846 1.49216 25.3561 1.05645 25.2932C0.775338 25.2475 0.505942 25.4474 0.412239 25.773C0.316194 26.0986 0.42161 26.4613 0.662894 26.6413C3.36856 28.7576 6.58023 30 10.0332 30C15.6296 30 20.0196 27.1497 22.9642 23.0769C25.9088 19.0042 27.4432 13.7148 27.4432 8.7738C27.4432 8.56531 27.4291 8.36253 27.4244 8.15689C28.5231 7.13157 29.5046 5.92917 30.273 4.52399C30.4252 4.25267 30.4088 3.88995 30.2332 3.63861C30.0598 3.38728 29.767 3.31017 29.5234 3.45011C29.2141 3.61862 28.8534 3.63576 28.5301 3.76999C28.9565 3.07597 29.3219 2.32768 29.5421 1.48515C29.6171 1.19669 29.5351 0.879665 29.3406 0.691166C29.1462 0.505521 28.8745 0.482673 28.6613 0.639756C27.6376 1.37947 26.5038 1.89928 25.3067 2.2163C24.1448 0.891089 22.6151 0 20.9027 0ZM20.9027 1.4623C22.4324 1.4623 23.8145 2.25914 24.782 3.51866C24.9272 3.70145 25.1404 3.77856 25.3442 3.7243C26.1266 3.5358 26.8692 3.25876 27.5931 2.90175C27.1761 3.5872 26.6607 4.1727 26.0564 4.61538C25.7823 4.77818 25.6534 5.16375 25.7542 5.51504C25.8525 5.86348 26.1524 6.06626 26.4499 5.98629C27.0496 5.89775 27.5837 5.60072 28.1553 5.41508C27.6423 6.09196 27.0801 6.70316 26.4686 7.24296C26.3023 7.39147 26.211 7.63138 26.225 7.88271C26.2344 8.17974 26.2438 8.47392 26.2438 8.7738C26.2438 13.3435 24.8054 18.3045 22.0646 22.0944C19.3238 25.8844 15.2993 28.5377 10.0332 28.5377C7.64141 28.5377 5.38317 27.8922 3.34279 26.7555C5.87277 26.5185 8.20597 25.4275 10.0894 23.6253C10.2862 23.4339 10.3635 23.1141 10.2838 22.8227C10.2042 22.5314 9.98398 22.3315 9.73333 22.3229C7.7562 22.2801 6.1 20.8778 5.21685 18.8957C5.24965 18.8957 5.27776 18.8957 5.31055 18.8957C5.90322 18.8957 6.48887 18.8043 7.03468 18.6215C7.29705 18.5272 7.47743 18.2302 7.46806 17.896C7.45869 17.5619 7.26426 17.2763 6.9972 17.2049C4.86312 16.6794 3.26315 14.5602 2.89302 11.9269C3.4974 12.1811 4.11584 12.381 4.78582 12.4067C5.0599 12.4267 5.30821 12.2182 5.39254 11.9012C5.47688 11.5842 5.3738 11.2357 5.14189 11.0586C3.71761 9.89623 2.78058 7.91698 2.78058 5.66641C2.78058 4.83244 2.95861 4.06702 3.19287 3.33587C6.19136 7.34863 10.3892 10.0133 15.1306 10.3046C15.318 10.3161 15.5007 10.2218 15.6225 10.0476C15.7444 9.87053 15.7912 9.63633 15.749 9.41356C15.6577 8.93945 15.5991 8.43679 15.5991 7.92841C15.5991 4.34692 17.9651 1.4623 20.9027 1.4623Z" fill="white"/>
</svg>
