<svg width="30" height="30" viewBox="0 0 30 30" fill="none" xmlns="http://www.w3.org/2000/svg">
<path d="M3.57143 -0.00683594C1.60749 -0.00683594 0 1.58964 0 3.54013V26.2407C0 28.1912 1.60749 29.7877 3.57143 29.7877H26.4286C28.3925 29.7877 30 28.1912 30 26.2407V3.54013C30 1.58964 28.3925 -0.00683594 26.4286 -0.00683594H3.57143ZM3.57143 1.41195H26.4286C27.6203 1.41195 28.5714 2.35652 28.5714 3.54013V26.2407C28.5714 27.4243 27.6203 28.3689 26.4286 28.3689H3.57143C2.37965 28.3689 1.42857 27.4243 1.42857 26.2407V3.54013C1.42857 2.35652 2.37965 1.41195 3.57143 1.41195ZM13.8546 8.50034C13.0993 8.49862 12.4258 8.54054 11.8234 8.83426L11.822 8.83564C11.5283 8.97934 11.3213 9.16185 11.1565 9.37877C11.0741 9.48723 10.9897 9.58459 10.9445 9.83184C10.9219 9.95547 10.9092 10.1558 11.0393 10.3722C11.1695 10.5886 11.4313 10.7116 11.5988 10.7338C11.7151 10.7492 11.9777 10.8602 12.002 10.8932L12.0033 10.8959C12.0033 10.8959 12.1052 11.1598 12.1345 11.3947C12.1638 11.6296 12.1624 11.8201 12.1624 11.8201C12.1621 11.839 12.1626 11.858 12.1638 11.8769C12.1638 11.8769 12.2052 12.4923 12.1777 13.128C12.1668 13.3814 12.1338 13.6068 12.0996 13.8083C11.8452 13.5294 11.4704 13.0243 10.9291 12.093C10.3286 11.0593 9.85073 10.1325 9.85073 10.1325C9.82563 10.0518 9.73686 9.80055 9.39035 9.54781C9.01154 9.27052 8.64537 9.22913 8.64537 9.22913C8.59944 9.21998 8.55271 9.21534 8.50586 9.21528L5.69057 9.21666C5.69057 9.21666 5.52177 9.20697 5.31948 9.23468C5.11718 9.26238 4.81256 9.28494 4.51869 9.63094L4.5173 9.63232C4.25467 9.94399 4.27055 10.2885 4.30246 10.483C4.33436 10.6776 4.40569 10.8253 4.40569 10.8253C4.40707 10.828 4.40846 10.8308 4.40988 10.8336C4.40988 10.8336 6.71265 15.642 9.31501 18.4734C11.2048 20.5292 13.1445 20.5642 14.7447 20.5642H15.9389C16.2438 20.5642 16.5195 20.5524 16.8248 20.3758C17.13 20.1992 17.3354 19.7692 17.3354 19.471C17.3354 19.1585 17.3824 18.9128 17.44 18.7865C17.4806 18.6977 17.5127 18.6657 17.5628 18.6397C17.5734 18.6464 17.5665 18.6425 17.5963 18.6632C17.7152 18.7463 17.9115 18.9356 18.125 19.1717C18.552 19.644 19.0366 20.2918 19.6875 20.736C20.1538 21.0545 20.5943 21.1959 20.9291 21.2473C21.1389 21.2794 21.3019 21.2732 21.4174 21.2639L24.0848 21.275C24.1006 21.275 24.1165 21.2746 24.1323 21.2736C24.1323 21.2736 24.5919 21.2789 25.0698 20.9951C25.3087 20.8532 25.5905 20.5841 25.6822 20.1915C25.7739 19.7989 25.6587 19.3921 25.4339 19.0207V19.0193C25.4729 19.0836 25.3985 18.9515 25.3223 18.8281C25.246 18.7047 25.1353 18.5384 24.9763 18.3321C24.6583 17.9195 24.1491 17.342 23.3259 16.5808H23.3245C22.9064 16.1944 22.6241 15.9209 22.5084 15.7689C22.3927 15.6168 22.4306 15.6967 22.4386 15.658C22.4546 15.5807 22.9564 14.8618 23.9774 13.5077C24.598 12.6834 25.0336 12.0646 25.3209 11.5499C25.6081 11.0352 25.8153 10.5894 25.671 10.0438L25.6696 10.0411C25.6056 9.80155 25.4307 9.58079 25.2511 9.46052C25.0715 9.34025 24.9012 9.29321 24.7489 9.26377C24.4442 9.2049 24.1783 9.21528 23.9314 9.21528C23.4137 9.21528 21.1168 9.23329 20.9277 9.23329C20.7044 9.23329 20.335 9.3342 20.1716 9.43142C19.7608 9.67693 19.6429 9.99949 19.6429 9.99949C19.6354 10.0131 19.6284 10.027 19.6219 10.0411C19.6219 10.0411 19.1481 11.0845 18.5379 12.1152C17.9198 13.1607 17.4632 13.6593 17.1875 13.8901C17.1799 13.849 17.1812 13.8824 17.1763 13.8249C17.1516 13.533 17.1791 13.1296 17.1791 12.7359C17.1791 11.6757 17.2696 10.9337 17.221 10.278C17.1967 9.95012 17.1355 9.61203 16.9182 9.30118C16.701 8.99033 16.3395 8.78839 15.9821 8.70263C15.7677 8.65127 15.5234 8.51768 14.6387 8.50866H14.6373C14.3667 8.50597 14.1064 8.50092 13.8546 8.50034ZM14.6233 9.92744C15.4062 9.93543 15.2112 9.97823 15.6459 10.0826C15.7808 10.115 15.7481 10.1148 15.745 10.1103C15.7418 10.1059 15.7814 10.179 15.7966 10.3833C15.8269 10.7918 15.7506 11.6041 15.7506 12.7359C15.7506 13.0446 15.7131 13.485 15.752 13.9441C15.7908 14.4032 15.9055 14.9924 16.4579 15.3477C16.7197 15.5162 17.0238 15.5268 17.2838 15.4627C17.5438 15.3985 17.7797 15.2647 18.0273 15.0678C18.5227 14.6738 19.0753 14.009 19.7698 12.8343C20.419 11.7378 20.8911 10.6936 20.9068 10.659C20.9099 10.6566 20.913 10.6549 20.9166 10.6521C20.9255 10.6522 20.9163 10.6521 20.9277 10.6521C21.1944 10.6521 23.449 10.6341 23.9314 10.6341C24.044 10.6341 24.0849 10.6408 24.1741 10.6438C24.1499 10.7241 24.1768 10.6729 24.0709 10.8627C23.8487 11.2608 23.4392 11.8524 22.8334 12.6569C21.838 13.9772 21.221 14.4946 21.0393 15.3712C20.9485 15.8095 21.1187 16.2954 21.3686 16.6237C21.6184 16.9521 21.9338 17.2334 22.3521 17.6199C23.1268 18.3363 23.5813 18.8568 23.8421 19.1953C23.9725 19.3645 24.0547 19.4867 24.1057 19.5694C24.1568 19.652 24.1442 19.6433 24.2104 19.7523C24.2539 19.8248 24.2379 19.7805 24.2453 19.8021C24.1596 19.8261 24.0559 19.855 24.0499 19.8562L21.423 19.8451C21.3757 19.8451 21.3285 19.8497 21.2821 19.8589C21.2821 19.8589 21.2887 19.8666 21.1482 19.8451C21.0076 19.8236 20.7841 19.7632 20.4967 19.5666C20.1497 19.3298 19.6639 18.7504 19.1881 18.224C18.9501 17.9608 18.7128 17.7081 18.418 17.5022C18.1231 17.2962 17.6819 17.1026 17.2056 17.2514C16.7112 17.4056 16.3263 17.7888 16.1384 18.2005C15.9985 18.5069 15.9872 18.827 15.9654 19.1454C15.9417 19.1472 15.969 19.1454 15.9389 19.1454H14.7447C13.1221 19.1454 11.9699 19.2569 10.3697 17.516C8.2172 15.1741 6.24508 11.2775 5.92355 10.6355L8.40123 10.6341C8.44478 10.6507 8.53798 10.6854 8.54353 10.6895L8.54632 10.6923C8.45575 10.6265 8.5505 10.7186 8.5505 10.7186C8.55925 10.7398 8.56902 10.7606 8.5798 10.7809C8.5798 10.7809 9.07075 11.7335 9.69169 12.8024C10.3008 13.8503 10.7446 14.505 11.1733 14.9375C11.3876 15.1538 11.604 15.3273 11.8931 15.4252C12.1823 15.5232 12.5557 15.4873 12.8069 15.3504C13.3201 15.0714 13.389 14.6599 13.4724 14.3002C13.5558 13.9399 13.5891 13.5561 13.6049 13.189C13.6357 12.4763 13.5922 11.8596 13.5896 11.8215C13.5897 11.8081 13.593 11.5509 13.5519 11.2215C13.5098 10.8843 13.4629 10.4719 13.1557 10.0563L13.1543 10.0549C13.1522 10.052 13.1495 10.0522 13.1473 10.0494C13.5536 9.9915 13.9012 9.92028 14.6233 9.92744ZM20.9249 10.623L20.9152 10.6451C20.9137 10.646 20.9142 10.6441 20.9124 10.6451C20.9154 10.6394 20.9249 10.623 20.9249 10.623Z" fill="white"/>
</svg>
