<svg width="45" height="45" viewBox="0 0 45 45" fill="red" xmlns="http://www.w3.org/2000/svg">
<g clip-path="url(#clip0_54_332)">
<path d="M21.0938 0C32.7435 0 42.1875 9.44399 42.1875 21.0938C42.1875 26.4127 40.2188 31.2718 36.9704 34.9823L44.5175 42.5287L42.5287 44.5175L34.9823 36.9704C31.2718 40.2188 26.4127 42.1875 21.0938 42.1875C9.44399 42.1875 0 32.7435 0 21.0938C0 9.44399 9.44399 0 21.0938 0ZM21.0938 2.8125C10.9973 2.8125 2.8125 10.9973 2.8125 21.0938C2.8125 31.1902 10.9973 39.375 21.0938 39.375C31.1902 39.375 39.375 31.1902 39.375 21.0938C39.375 10.9973 31.1902 2.8125 21.0938 2.8125ZM22.5 12.6562V19.6875H29.5312V22.5H22.5V29.5312H19.6875V22.5H12.6562V19.6875H19.6875V12.6562H22.5Z" fill="#fff"/>
</g>
<defs>
<clipPath id="clip0_54_332">
<rect width="45" height="45" fill="red"/>
</clipPath>
</defs>
</svg>
